<?xml version="1.0" encoding="utf-8"?>
<!-- Generator: Adobe Illustrator 25.4.1, SVG Export Plug-In . SVG Version: 6.00 Build 0)  -->
<svg version="1.1" id="Glyph" xmlns="http://www.w3.org/2000/svg" xmlns:xlink="http://www.w3.org/1999/xlink" x="0px" y="0px"
	 viewBox="0 0 12 12" style="enable-background:new 0 0 12 12;" xml:space="preserve">
<style type="text/css">
	.st0{fill:#6457EE;}
</style>
<g>
	<path id="XMLID_246_" class="st0" d="M10.3,2.1H8V1.7C8,1,7.4,0.5,6.8,0.5H5.2C4.6,0.5,4,1,4,1.7v0.4H1.7c-0.4,0-0.8,0.4-0.8,0.8
		v0.4c0,0.2,0.2,0.4,0.4,0.4h9.5c0.2,0,0.4-0.2,0.4-0.4V2.8C11.1,2.4,10.8,2.1,10.3,2.1z M4.8,1.7c0-0.2,0.2-0.4,0.4-0.4h1.6
		c0.2,0,0.4,0.2,0.4,0.4v0.4H4.8V1.7z"/>
	<path id="XMLID_249_" class="st0" d="M2.1,4.4v5.9c0,0.7,0.5,1.2,1.2,1.2h5.5c0.7,0,1.2-0.5,1.2-1.2V4.4H2.1z M7.5,8.5
		c0.2,0.2,0.2,0.4,0,0.6C7.3,9.2,7.1,9.2,6.9,9L6,8.1L5.1,9C4.9,9.2,4.7,9.2,4.5,9c-0.2-0.2-0.2-0.4,0-0.6l0.9-0.9L4.5,6.7
		c-0.2-0.2-0.2-0.4,0-0.6s0.4-0.2,0.6,0L6,7l0.9-0.9C7.1,6,7.3,6,7.5,6.1s0.2,0.4,0,0.6L6.6,7.6L7.5,8.5z"/>
</g>
</svg>
